<svg xmlns="http://www.w3.org/2000/svg" viewBox="0 0 360 260" role="img" aria-labelledby="title desc">
  <title id="title">Zow Correspondencia</title>
  <desc id="desc">Logo para el sistema Zow Correspondencia.</desc>
  <defs>
    <linearGradient id="docBg" x1="62" y1="32" x2="302" y2="220" gradientUnits="userSpaceOnUse">
      <stop offset="0" stop-color="#0b172a"/>
      <stop offset="1" stop-color="#123560"/>
    </linearGradient>
    <linearGradient id="docAccent" x1="104" y1="58" x2="250" y2="186" gradientUnits="userSpaceOnUse">
      <stop offset="0" stop-color="#7dd3fc"/>
      <stop offset=".52" stop-color="#22d3ee"/>
      <stop offset="1" stop-color="#8cffc1"/>
    </linearGradient>
  </defs>
  <rect x="28" y="24" width="304" height="212" rx="34" fill="url(#docBg)"/>
  <path d="M68 196c46-22 76-34 118-34 38 0 63 9 106 31" fill="none" stroke="#22d3ee" stroke-width="2" opacity=".24"/>
  <g>
    <rect x="112" y="55" width="100" height="126" rx="18" fill="#eefbff"/>
    <path d="M188 55l24 24h-23a1 1 0 0 1-1-1V55z" fill="#baeefe"/>
    <path d="M132 95h58M132 118h48M132 141h62" stroke="#0f2948" stroke-width="8" stroke-linecap="round" opacity=".42"/>
    <rect x="188" y="128" width="60" height="46" rx="13" fill="url(#docAccent)"/>
    <path d="M198 143h40M198 158h27" stroke="#062033" stroke-width="6" stroke-linecap="round" opacity=".54"/>
    <circle cx="117" cy="61" r="9" fill="#8cffc1"/>
    <circle cx="238" cy="178" r="8" fill="#22d3ee"/>
  </g>
  <text x="180" y="214" text-anchor="middle" fill="#f8fbff" font-family="Montserrat, Arial, sans-serif" font-size="24" font-weight="850">Zow Correspondencia</text>
  <text x="180" y="232" text-anchor="middle" fill="#a8f4ff" font-family="Montserrat, Arial, sans-serif" font-size="11" font-weight="700" letter-spacing="2.6">DOCUMENTOS Y CONTROL</text>
</svg>
